<?xml version="1.0" encoding="UTF-8"?>
<svg width="77px" height="107px" viewBox="0 0 77 107" version="1.1" xmlns="http://www.w3.org/2000/svg" xmlns:xlink="http://www.w3.org/1999/xlink">
    <!-- Generator: Sketch 55.2 (78181) - https://sketchapp.com -->
    <title>female</title>
    <desc>Created with Sketch.</desc>
    <g id="Page-1" stroke="none" stroke-width="1" fill="none" fill-rule="evenodd">
        <g id="moves-categories" transform="translate(-218.000000, -385.000000)" fill="#000000">
            <path d="M262.292893,460.781163 L262.292893,469.585417 L274.877417,469.585417 L274.877417,481.585417 L262.292893,481.585417 L262.292893,492.000893 L250.292893,492.000893 L250.292893,481.585417 L236.877417,481.585417 L236.877417,469.585417 L250.292893,469.585417 L250.292893,460.715284 C242.727014,459.469246 235.465576,455.92841 229.629942,450.092776 C214.790019,435.252853 214.790019,411.192584 229.629942,396.352661 C244.469865,381.512737 268.530135,381.512737 283.370058,396.352661 C298.209981,411.192584 298.209981,435.252853 283.370058,450.092776 C277.428005,456.034829 270.007671,459.597625 262.292893,460.781163 Z M239.529437,406.252155 C230.156854,415.624738 230.156854,430.820698 239.529437,440.193281 C248.90202,449.565864 264.09798,449.565864 273.470563,440.193281 C282.843146,430.820698 282.843146,415.624738 273.470563,406.252155 C264.09798,396.879572 248.90202,396.879572 239.529437,406.252155 Z" id="female"></path>
        </g>
    </g>
</svg>