<?xml version="1.0" encoding="UTF-8"?>
<svg width="96px" height="95px" viewBox="0 0 96 95" version="1.1" xmlns="http://www.w3.org/2000/svg" xmlns:xlink="http://www.w3.org/1999/xlink">
    <!-- Generator: Sketch 55.2 (78181) - https://sketchapp.com -->
    <title>male</title>
    <desc>Created with Sketch.</desc>
    <g id="Page-1" stroke="none" stroke-width="1" fill="none" fill-rule="evenodd">
        <g id="moves-categories" transform="translate(-56.000000, -393.000000)" fill="#000000">
            <path d="M124.831535,426.121318 C129.740628,432.52332 132.658174,440.532751 132.658174,449.223611 C132.658174,470.210432 115.644994,487.223611 94.6581737,487.223611 C73.6713532,487.223611 56.6581737,470.210432 56.6581737,449.223611 C56.6581737,428.236791 73.6713532,411.223611 94.6581737,411.223611 C102.986282,411.223611 110.688659,413.902687 116.950485,418.446018 L133.544941,402.851563 L116.341826,402.851563 L116.341826,393 L151.341826,393 L151.341826,428 L141.490264,428 L141.490264,410.462589 L124.831535,426.121318 Z M94.6581737,473.223611 C107.913008,473.223611 118.658174,462.478445 118.658174,449.223611 C118.658174,435.968777 107.913008,425.223611 94.6581737,425.223611 C81.4033397,425.223611 70.6581737,435.968777 70.6581737,449.223611 C70.6581737,462.478445 81.4033397,473.223611 94.6581737,473.223611 Z" id="male"></path>
        </g>
    </g>
</svg>