<?xml version="1.0" encoding="UTF-8"?>
<svg width="94px" height="95px" viewBox="0 0 94 95" version="1.1" xmlns="http://www.w3.org/2000/svg" xmlns:xlink="http://www.w3.org/1999/xlink">
    <!-- Generator: Sketch 55.2 (78181) - https://sketchapp.com -->
    <title>ct</title>
    <desc>Created with Sketch.</desc>
    <g id="Icons" stroke="none" stroke-width="1" fill="none" fill-rule="evenodd">
        <g id="ct" fill="#FFFFFF">
            <path d="M50.5178326,1.09917542 L47.5484395,27.6599853 C42.9296494,28.5287124 38.1847482,30.9974731 34.233927,34.9482942 C29.8266665,39.3555548 27.2636934,44.7509748 26.7087753,49.8571682 L2.04281037e-14,53.0736033 C2.18419046,41.586563 8.54464022,29.5248827 18.6775779,19.391945 C28.2703985,9.7991244 39.5918259,3.58733951 50.5178326,1.09917542 L50.5178326,1.09917542 Z M64.4493801,5.55111512e-17 C72.1913512,0.635094591 79.1663862,3.51322103 84.4385085,8.78534331 C99.6689559,24.0157907 94.9202185,53.4579622 73.8319068,74.546274 C55.7067297,92.671451 31.4103747,98.726229 15.2702591,90.3997341 L33.7350702,64.8002767 C40.6606609,68.5967783 50.8649975,66.4004849 58.2755576,58.9899248 C66.867092,50.3983904 68.4500045,38.0516733 61.8110915,31.4127603 C59.5452181,29.1468869 56.6144598,27.8387489 53.3950388,27.440113 L64.4493801,5.55111512e-17 L64.4493801,5.55111512e-17 Z M0.537583663,72.1504139 L27.5960562,57.685182 C28.2763365,59.4913085 29.3067237,61.1337893 30.6983931,62.5254587 C30.9598077,62.7868733 31.2300721,63.0355401 31.5086086,63.2715332 L9.71052575,86.6694826 C9.14745515,86.1880065 8.60062229,85.6825218 8.07097614,85.1528757 C4.44193764,81.5238372 1.94721915,77.0879268 0.537583663,72.1504139 L0.537583663,72.1504139 Z M34.233927,58.9899248 C29.4391566,54.1951543 30.9341294,44.9263225 37.5730424,38.2874096 C44.2119554,31.6484966 53.4807871,30.1535237 58.2755576,34.9482942 C63.0703281,39.7430647 61.5753552,49.0118965 54.9364423,55.6508094 C48.2975293,62.2897224 39.0286975,63.7846952 34.233927,58.9899248 Z M42.0251962,51.1986556 C43.8302205,53.0036799 47.1871141,52.5733089 49.523028,50.2373951 C51.8589418,47.9014813 52.2893128,44.5445877 50.4842884,42.7395634 C48.6792641,40.9345391 45.3223705,41.36491 42.9864567,43.7008239 C40.6505429,46.0367377 40.2201719,49.3936313 42.0251962,51.1986556 Z"></path>
        </g>
    </g>
</svg>