<?xml version="1.0" encoding="UTF-8"?>
<svg width="77px" height="99px" viewBox="0 0 77 99" version="1.1" xmlns="http://www.w3.org/2000/svg" xmlns:xlink="http://www.w3.org/1999/xlink">
    <!-- Generator: Sketch 55.2 (78181) - https://sketchapp.com -->
    <title>egg</title>
    <desc>Created with Sketch.</desc>
    <g id="Icons" stroke="none" stroke-width="1" fill="none" fill-rule="evenodd">
        <g id="egg" fill="#FFFFFF">
            <path d="M38.1925463,99 C17.0993854,99 1.42108547e-14,81.9006146 1.42108547e-14,60.8074537 C1.42108547e-14,39.7142929 17.0993854,0 38.1925463,0 C59.2857071,0 76.3850925,39.7142929 76.3850925,60.8074537 C76.3850925,81.9006146 59.2857071,99 38.1925463,99 Z M14.1254011,61.6172381 C18.4481405,62.6152212 23.5048668,56.6998311 25.4199154,48.4048445 C27.3349639,40.109858 26.6180775,30.2201799 22.295338,29.2221968 C17.9725986,28.2242138 11.6809396,36.4958417 9.76589103,44.7908283 C7.8508425,53.0858148 9.80266163,60.6192551 14.1254011,61.6172381 Z M50.3374502,86.7055785 C57.9637236,86.0383661 63.4428924,77.4604726 62.5755162,67.5463172 C61.70814,57.6321618 54.8226765,50.1360334 47.1964031,50.8032459 C39.5701298,51.4704584 34.090961,60.0483519 34.9583372,69.9625073 C35.8257134,79.8766626 42.7111769,87.372791 50.3374502,86.7055785 Z M57.6237943,35.1745693 C60.5339827,34.3382977 62.2174422,31.7622503 60.2334783,27.0883243 C58.2495144,22.4143982 53.6190699,18.5297258 51.1847336,19.5630403 C48.7503973,20.5963548 48.6261401,26.1052271 50.7284819,31.058034 C52.8308236,36.0108409 54.7136058,36.0108409 57.6237943,35.1745693 Z"></path>
        </g>
    </g>
</svg>