<?xml version="1.0" encoding="UTF-8"?>
<svg width="91px" height="77px" viewBox="0 0 91 77" version="1.1" xmlns="http://www.w3.org/2000/svg" xmlns:xlink="http://www.w3.org/1999/xlink">
    <!-- Generator: Sketch 55.2 (78181) - https://sketchapp.com -->
    <title>level</title>
    <desc>Created with Sketch.</desc>
    <g id="Icons" stroke="none" stroke-width="1" fill="none" fill-rule="evenodd">
        <g id="icons" transform="translate(-19.000000, -283.000000)" fill="#FFFFFF" fill-rule="nonzero">
            <g id="level" transform="translate(19.865128, 283.250000)">
                <path d="M9,0 L80.902439,0 C85.8730018,0 89.902439,4.02943725 89.902439,9 L89.902439,67 C89.902439,71.9705627 85.8730018,76 80.902439,76 L9,76 C4.02943725,76 -7.10542736e-15,71.9705627 -7.10542736e-15,67 L-7.10542736e-15,9 C-7.10542736e-15,4.02943725 4.02943725,0 9,0 Z M13.7691308,61.8658537 L33.7738138,61.8658537 L33.7738138,55.1537561 L20.4812284,55.1537561 L20.4812284,15.0127805 L13.7691308,15.0127805 L13.7691308,61.8658537 Z M55.3244479,15.0127805 L48.2175211,15.0127805 L42.8215211,47.7178049 L42.6899113,47.7178049 L37.3597162,15.0127805 L30.2527894,15.0127805 L39.7944967,61.8658537 L45.7169357,61.8658537 L55.3244479,15.0127805 Z M59.3385455,61.8658537 L79.3432284,61.8658537 L79.3432284,55.1537561 L66.050643,55.1537561 L66.050643,15.0127805 L59.3385455,15.0127805 L59.3385455,61.8658537 Z" id="Shape"></path>
            </g>
        </g>
    </g>
</svg>