<?xml version="1.0" encoding="UTF-8"?>
<svg width="100px" height="100px" viewBox="0 0 100 100" version="1.1" xmlns="http://www.w3.org/2000/svg" xmlns:xlink="http://www.w3.org/1999/xlink">
    <!-- Generator: Sketch 55.2 (78181) - https://sketchapp.com -->
    <title>machine</title>
    <desc>Created with Sketch.</desc>
    <g id="Icons" stroke="none" stroke-width="1" fill="none" fill-rule="evenodd">
        <g id="machine" fill="#FFFFFF">
            <path d="M28.0553214,21 L72.0553214,21 C75.9213146,21 79.0553214,24.1340068 79.0553214,28 L79.0553214,72 C79.0553214,75.8659932 75.9213146,79 72.0553214,79 L28.0553214,79 C24.1893281,79 21.0553214,75.8659932 21.0553214,72 L21.0553214,28 C21.0553214,24.1340068 24.1893281,21 28.0553214,21 Z M37.4995327,85.106383 L37.4995327,94.8598131 C37.4995327,97.6986599 35.1981926,100 32.3593458,100 C29.5204989,100 27.2191589,97.6986599 27.2191589,94.8598131 L27.2191589,85.106383 L37.4995327,85.106383 L37.4995327,85.106383 Z M14.9384907,72.7808411 L5.14018692,72.7808411 C2.30134007,72.7808411 -7.10542736e-15,70.4795011 -7.10542736e-15,67.6406542 C-7.10542736e-15,64.8018074 2.30134007,62.5004673 5.14018692,62.5004673 L14.9384907,62.5004673 L14.9384907,72.7808411 Z M14.9384907,55.1401869 L5.14018692,55.1401869 C2.30134007,55.1401869 -7.10542736e-15,52.8388468 -7.10542736e-15,50 C-7.10542736e-15,47.1611532 2.30134007,44.8598131 5.14018692,44.8598131 L14.9384907,44.8598131 L14.9384907,55.1401869 L14.9384907,55.1401869 Z M14.9384907,37.4995327 L5.14018692,37.4995327 C2.30134007,37.4995327 -7.10542736e-15,35.1981926 -7.10542736e-15,32.3593458 C-7.10542736e-15,29.5204989 2.30134007,27.2191589 5.14018692,27.2191589 L14.9384907,27.2191589 L14.9384907,37.4995327 L14.9384907,37.4995327 Z M27.2191589,14.893617 L27.2191589,5.14018692 C27.2191589,2.30134007 29.5204989,1.42108547e-14 32.3593458,1.42108547e-14 C35.1981926,1.42108547e-14 37.4995327,2.30134007 37.4995327,5.14018692 L37.4995327,14.893617 L27.2191589,14.893617 Z M44.8598131,14.893617 L44.8598131,5.14018692 C44.8598131,2.30134007 47.1611532,7.10542736e-13 50,7.10542736e-13 C52.8388468,7.10542736e-13 55.1401869,2.30134007 55.1401869,5.14018692 L55.1401869,14.893617 L44.8598131,14.893617 L44.8598131,14.893617 Z M62.5004673,14.893617 L62.5004673,5.14018692 C62.5004673,2.30134007 64.8018074,1.64135372e-12 67.6406542,1.64135372e-12 C70.4795011,1.64135372e-12 72.7808411,2.30134007 72.7808411,5.14018692 L72.7808411,14.893617 L62.5004673,14.893617 Z M85.1512566,27.2191589 L94.8598131,27.2191589 C97.6986599,27.2191589 100,29.5204989 100,32.3593458 C100,35.1981926 97.6986599,37.4995327 94.8598131,37.4995327 L85.1512566,37.4995327 L85.1512566,27.2191589 L85.1512566,27.2191589 Z M85.1512566,44.8598131 L94.8598131,44.8598131 C97.6986599,44.8598131 100,47.1611532 100,50 C100,52.8388468 97.6986599,55.1401869 94.8598131,55.1401869 L85.1512566,55.1401869 L85.1512566,44.8598131 L85.1512566,44.8598131 Z M85.1512566,62.5004673 L94.8598131,62.5004673 C97.6986599,62.5004673 100,64.8018074 100,67.6406542 C100,70.4795011 97.6986599,72.7808411 94.8598131,72.7808411 L85.1512566,72.7808411 L85.1512566,62.5004673 Z M72.7808411,85.106383 L72.7808411,94.8598131 C72.7808411,97.6986599 70.4795011,100 67.6406542,100 C64.8018074,100 62.5004673,97.6986599 62.5004673,94.8598131 L62.5004673,85.106383 L72.7808411,85.106383 Z M55.1401869,85.106383 L55.1401869,94.8598131 C55.1401869,97.6986599 52.8388468,100 50,100 C47.1611532,100 44.8598131,97.6986599 44.8598131,94.8598131 L44.8598131,85.106383 L55.1401869,85.106383 L55.1401869,85.106383 Z"></path>
        </g>
    </g>
</svg>