<?xml version="1.0" encoding="UTF-8"?>
<svg width="109px" height="84px" viewBox="0 0 109 84" version="1.1" xmlns="http://www.w3.org/2000/svg" xmlns:xlink="http://www.w3.org/1999/xlink">
    <!-- Generator: Sketch 55.2 (78181) - https://sketchapp.com -->
    <title>tutor</title>
    <desc>Created with Sketch.</desc>
    <g id="Icons" stroke="none" stroke-width="1" fill="none" fill-rule="evenodd">
        <g id="tutor" fill="#FFFFFF">
            <path d="M24.0175141,41.3903479 L54.3507635,53.3075205 L84.6840129,41.3903479 L84.6840129,72.737525 L84.4759961,72.737525 C82.7085907,78.7361013 69.8951274,83.3903479 54.3507635,83.3903479 C38.8063996,83.3903479 25.9929363,78.7361013 24.2255309,72.737525 L24.0175141,72.737525 L24.0175141,41.3903479 Z M55.0395677,0.12235554 L107.389796,19.3267682 C108.42679,19.7071842 108.959052,20.8562225 108.578636,21.8932169 C108.381721,22.4299958 107.964486,22.8568316 107.432325,23.0659044 L55.0820969,43.6329953 C54.6120295,43.817673 54.0894975,43.817673 53.6194301,43.6329953 L1.26920217,23.0659044 C0.241128676,22.6620001 -0.264860448,21.5011527 0.139043832,20.4730792 C0.348116609,19.940918 0.774952412,19.5236828 1.31173132,19.3267682 L53.6619592,0.12235554 C54.1066723,-0.04078518 54.5948546,-0.04078518 55.0395677,0.12235554 Z"></path>
        </g>
    </g>
</svg>