<?xml version="1.0" encoding="UTF-8"?>
<svg width="109px" height="109px" viewBox="0 0 109 109" version="1.1" xmlns="http://www.w3.org/2000/svg" xmlns:xlink="http://www.w3.org/1999/xlink">
    <!-- Generator: Sketch 55.2 (78181) - https://sketchapp.com -->
    <title>special</title>
    <desc>Created with Sketch.</desc>
    <g id="Page-1" stroke="none" stroke-width="1" fill="none" fill-rule="evenodd">
        <g id="moves-categories" transform="translate(-349.000000, -228.000000)" fill="#000000">
            <path d="M403.929688,336.570312 C374.106311,336.570312 349.929688,312.393689 349.929688,282.570312 C349.929688,252.746936 374.106311,228.570312 403.929688,228.570312 C433.753064,228.570312 457.929688,252.746936 457.929688,282.570312 C457.929688,312.393689 433.753064,336.570312 403.929688,336.570312 Z M403.929688,323.570312 C426.573362,323.570312 444.929688,305.213987 444.929688,282.570312 C444.929688,259.926638 426.573362,241.570313 403.929688,241.570313 C381.286013,241.570312 362.929688,259.926638 362.929688,282.570312 C362.929688,305.213987 381.286013,323.570312 403.929688,323.570312 Z M403.929688,312.570313 C387.361145,312.570313 373.929688,299.138855 373.929688,282.570313 C373.929688,266.00177 387.361145,252.570313 403.929688,252.570313 C420.49823,252.570313 433.929688,266.00177 433.929688,282.570313 C433.929688,299.138855 420.49823,312.570313 403.929688,312.570313 Z M403.929688,303.570313 C415.527667,303.570313 424.929688,294.168292 424.929688,282.570313 C424.929688,270.972333 415.527667,261.570313 403.929688,261.570313 C392.331708,261.570313 382.929688,270.972333 382.929688,282.570313 C382.929688,294.168292 392.331708,303.570313 403.929688,303.570313 Z M403.929688,294.570312 C397.302271,294.570312 391.929688,289.197729 391.929688,282.570312 C391.929688,275.942896 397.302271,270.570312 403.929688,270.570312 C410.557104,270.570312 415.929688,275.942896 415.929688,282.570312 C415.929688,289.197729 410.557104,294.570312 403.929688,294.570312 Z" id="special"></path>
        </g>
    </g>
</svg>