<?xml version="1.0" encoding="UTF-8"?>
<svg width="108px" height="109px" viewBox="0 0 108 109" version="1.1" xmlns="http://www.w3.org/2000/svg" xmlns:xlink="http://www.w3.org/1999/xlink">
    <!-- Generator: Sketch 55.2 (78181) - https://sketchapp.com -->
    <title>status</title>
    <desc>Created with Sketch.</desc>
    <g id="Page-1" stroke="none" stroke-width="1" fill="none" fill-rule="evenodd">
        <g id="moves-categories" transform="translate(-51.000000, -228.000000)" fill="#000000">
            <path d="M105,336.570312 C75.1766235,336.570312 51,312.393689 51,282.570312 C51,252.746936 75.1766235,228.570312 105,228.570312 C134.823376,228.570312 159,252.746936 159,282.570312 C159,312.393689 134.823376,336.570312 105,336.570312 Z M112.791977,324.210826 C132.853173,320.909794 148.156853,303.48823 148.156853,282.492301 C148.156853,259.140887 129.226792,240.210826 105.875379,240.210826 L105.483884,240.210826 C93.8081773,240.210826 84.3431469,249.675857 84.3431469,261.351563 C84.3431469,273.02727 93.8081773,282.492301 105.483884,282.492301 C105.614663,282.492301 105.745165,282.491113 105.875379,282.488748 L105.875379,282.500226 C106.070484,282.494954 106.266243,282.492301 106.462622,282.492301 C118.246437,282.492301 127.799106,292.04497 127.799106,303.828785 C127.799106,313.408816 121.485366,321.514193 112.791977,324.210826 Z" id="status"></path>
        </g>
    </g>
</svg>