<svg height="89" viewBox="0 0 100 89" width="100" xmlns="http://www.w3.org/2000/svg"><path d="m38.2382858.00032996c-1.6744964-.01205471-3.4614011.30630634-5.2896514.93708499-4.3818573 1.51273177-8.6766304 4.88058847-11.2323047 9.34332805 19.998345 17.8085792 27.7868204 32.7746491 27.9237777 56.6563786 11.229979-20.0986081 9.4487593-43.2965849-4.4490439-64.14199762-1.790264-1.862102-4.2136324-2.77428907-6.9530361-2.79479402zm24.2336838 9.14126563c-1.6739795-.01181042-3.4608843.30655062-5.2888761.93732931-.644216.2222325-1.2873984.4914957-1.92257.7915096 3.8249839 8.2582647 5.9780555 16.8064654 6.395646 25.3076355 8.5249438 11.6439518 12.1310544 23.7284924 12.2264077 39.892034 11.2232603-20.1009338 9.4319627-43.3043372-4.4738512-64.1502668-1.7881968-1.847631-4.2069138-2.75723397-6.9362396-2.77824161zm18.2910306 12.80804991c-.1317891-.0009186-.2630614.0052832-.3961425.0078673 5.0033332 11.6568722 6.6959183 23.825913 4.9180579 35.5959688 4.7250257 9.1528799 6.8168541 19.0621257 6.8879169 31.3244525 11.2242935-20.101709 9.4324795-43.3043372-4.4738512-64.1502668-1.7881968-1.847631-4.2074306-2.7577508-6.936498-2.7780218zm-67.8586258 14.5002767c-2.5086436.0664114-4.94932547.6682481-7.00936949 1.6711371-3.70740735 1.8055102-5.93955238 4.6410425-5.89433065 7.906052 2.29571388 11.5602269 5.43694507 20.0800025 10.52193584 26.0187797 4.1720284 4.8725777 9.7317182 8.1747983 17.6767901 10.1182995-10.3069388-15.0789951-12.1364811-23.4209846-10.7725935-45.2302664-1.1282177-.2801164-2.2879615-.4367128-3.439953-.4762496-.3602235-.013023-.7235479-.0175718-1.0822209-.0077523z" fill="#fff"/></svg>