<svg height="102" viewBox="0 0 87 102" width="87" xmlns="http://www.w3.org/2000/svg"><path d="m57.2214219 2.0817739c-1.5581402 4.05972947-6.9830808 7.50952623-13.7611203 7.50952623-6.8212972 0-12.238884-3.50884344-13.7611203-7.61767033l-.4866485-1.31806027h-1.8788955l-.4260878.20979955c-15.9607712 7.91593175-26.9075495 26.81519442-26.9075495 48.62418232 0 28.7459992 19.2721436 52.5104486 43.4603016 52.5104486 24.1885906 0 43.3188491-23.7709381 43.3188491-52.5104486 0-21.7354499-10.8905434-40.52721735-26.7591758-48.48921849l-1.9937447-1.00033291zm-14.4886948 14.7914171c6.7190442 0 12.6575114-2.9053682 15.4787396-7.53956234 12.4744307 7.17644204 21.3391491 22.84799424 21.3391491 41.14512354 0 25.2667691-16.647172 45.4342418-36.817686 45.4342418-20.1703112 0-36.94399755-20.1733524-36.94399755-45.4344445 0-18.356737 8.90202395-34.1170925 21.43403485-41.26555546 2.7849364 4.68954416 8.7406372 7.66019696 15.50976 7.66019696zm-14.5635903.0184738c-2.1330753 1.5400954-4.1059821 3.3926412-5.8734678 5.5159524l11.3364688 14.8045938h19.211009l11.3366566-14.8104147c-1.7017659-2.0435086-3.5901759-3.8410376-5.6331213-5.3458321-3.4125448 3.4966662-8.9157288 5.7683162-15.1155421 5.7683162-6.2940741 0-11.8622268-2.3446928-15.2620032-5.9326156zm-8.0564901 8.4322193c-4.504056 6.6686767-7.2235392 15.3042517-7.2235392 24.7447996 0 .3826767.0088253.7638513.0178383 1.1440869h10.0337156l8.1389214-11.5595404zm46.250179 0-10.9669361 14.3293461 8.1387337 11.5597282h10.0400998c.0086374-.3802357.0172749-.7614102.0172749-1.1442747 0-9.4411113-2.724553-18.0761229-7.2291723-24.7447996zm-31.7448917 15.3971982-8.3032207 11.7944415 8.3032207 11.8002625h17.2396044l8.3032208-11.8002625-8.3032208-11.7944415zm-21.4997462 14.0007474c.8543567 8.8657818 4.1174361 16.7910201 8.94258 22.7146227l9.1125126-11.9121738-7.5988929-10.8024489zm49.7827093 0-7.5988928 10.8024489 9.1187089 11.9121738c4.8249562-5.9236026 8.0882233-13.8488409 8.9425801-22.7146227h-10.462584zm-29.0637137 13.1026401-9.3885355 12.2640561c5.168201 5.1379699 11.6932332 8.2031389 18.7889005 8.2031389 7.0958551 0 13.6265204-3.0649812 18.7947214-8.2029512l-9.3885355-12.2638683h-18.8061753z" fill="#fff"/></svg>