<svg height="96" viewBox="0 0 92 96" width="92" xmlns="http://www.w3.org/2000/svg"><path d="m16.0556495 21.3312171 24.983546 18.3505124-14.3632598 4.8729823 14.0938707 4.7369421-23.4750743 22.9368948-4.7012192-4.7009746-12.5935129 27.9724259 30.1258261-10.6390349-4.2798859-4.6366246 25.672761-25.2972914 3.0420661 10.5401854 5.6216933-16.760358 13.8670553-4.0530706-14.0627967-3.7905323-5.6114169-19.5320565-3.4609527 11.8095686-49.23091834-33.1407857zm45.660445-11.0368793c-1.1083857.0048936-2.2106545.0293613-3.305583.0738924-.8013164.0327867-1.5972499.0782966-2.3880452.1338382l7.6461487 26.6174061 25.4586169 6.8619597c1.5179747-9.5631912 2.1781126-19.6414269 2.2461327-29.379562-8.6747699-2.6241582-18.7730691-4.2299718-28.5474163-4.3050876-.3704406-.003013-.7406366-.0036701-1.1100985-.0024468zm-9.0212322.5138212c-7.8272095.8938042-14.9284631 2.9735567-20.3115965 6.3297878l15.7799383 9.12889 4.5314136-15.4586778zm36.2562024 34.2540124-25.1933873 7.3630578-9.5252663 28.3957167-4.9591086-17.1824255-9.559521 9.558787c4.6033486 8.652749 11.2795987 15.2401814 21.0850198 18.9878953 11.6155399-4.3635653 19.2232744-15.3644771 23.981748-29.752694 1.7917679-5.4171435 3.1575536-11.2820454 4.1697813-17.3703373z" fill="#fff"/></svg>