<svg height="105" viewBox="0 0 106 105" width="106" xmlns="http://www.w3.org/2000/svg"><path d="m.69304708 0c32.59149722 44.4995265 44.62201032 68.874032-.69304708 55.6107499 44.4466558 18.2681571 49.679756 38.8842149 10.8230779 39.8204673 42.059102 11.2693948 69.4053828 13.2745168 83.0863436 2.2976736 14.9271675-11.9769815 13.7904475-39.1349103 2.9321223-79.6585583-.0004406 39.6404866-19.4608325 33.0298837-37.7100443-8.80297566 13.2718737 42.16219986-17.9337497 25.63194756-58.43845242-9.26735684zm97.45601682 78.7856319c0 13.5434275-15.5363538 23.9124461-28.6967584 20.3859688-13.0612719-3.4996014-20.8193898-16.7952668-17.4902965-29.8602838.2520171 1.7277713 2.2770261 3.2562863 1.7200609 4.9707293-4.2007991 12.9308444 24.5853378 34.7170888 34.5261659 12.9308444s-26.0573194-8.4272587-23.1571978-25.1089549 33.0980259-10.5712969 33.0980259 16.6816962z" fill="#fff"/></svg>