<svg height="93" viewBox="0 0 93 93" width="93" xmlns="http://www.w3.org/2000/svg"><path d="m45.8202075.00154977c-14.0072.07058434-27.8040081 6.52059309-36.78552517 18.66109973-13.57824939 18.3538731-11.4966919 43.4239532 3.85977737 59.3050411l-7.24082564 9.7869174 29.40430864-4.3970349-4.3976183-29.4041142-8.3878698 11.3378285c-8.5712334-10.5744288-9.2796047-25.9870932-.8089004-37.4369233 5.9648629-8.0629485 15.1402439-12.3481763 24.4532935-12.3965937 3.1780454-.016528 6.3712576.4631733 9.4588851 1.4519374l-1.353936-9.05151809c-4.6391218-.94501349-9.3155775-.97729173-13.8090583-.19386388-11.5174977 1.42374255-22.1658164 7.76194417-28.8087168 17.73650317 6.9320434-12.8121273 20.1785658-20.59546065 34.231072-20.95052128.3253102-.00816678.6508149-.01225017.9767084-.01263906 2.8778189-.00194448 5.7844159.31033776 8.6717627.95376361l9.4516905-1.4132424c-6.0550865-2.70398304-12.5068452-4.00950168-18.9146589-3.97761996zm41.4036466 4.28853344-29.4037253 4.39645166 4.3972294 29.40430863 7.9968364-10.8089321c8.2064505 10.5565396 8.768014 25.6763666.4252561 36.9533331-7.8206672 10.571512-21.1597466 14.6457647-33.0929725 11.1935487l1.2681848 8.4775099c5.5856909 1.0758765 11.3238283.85829 16.7619337-.596953 7.2816595-1.158322 14.2607592-4.2875612 20.0591753-9.2805769-9.5660255 10.6265406-23.8421459 15.0723819-37.2840878 12.5107342l-10.8501549 1.6224676c19.2561082 8.4973435 42.4676618 2.8719854 55.5166258-14.765933 13.4421364-18.1701205 11.5384981-42.9228628-3.3995207-58.8261176l7.6056086-10.27984119z" fill="#fff"/></svg>